<svg width="100" height="100" viewBox="0 0 100 100" fill="none" xmlns="http://www.w3.org/2000/svg">
<g clip-path="url(#clip0_1390_2)">
<rect width="100" height="100" rx="15" fill="black"/>
<path d="M66.28 20.22C66.46 19.08 67.45 18.51 69.25 18.51C70.45 18.51 71.74 18.78 73.12 19.32C74.5 19.86 75.64 20.61 76.54 21.57C77.44 22.47 77.8 23.4 77.62 24.36C74.86 43.14 69.91 60.54 62.77 76.56C62.29 77.64 61.24 78.18 59.62 78.18C58.6 78.18 57.4 77.97 56.02 77.55C52.36 76.41 49.84 74.25 48.46 71.07C47.14 67.83 46.33 63.87 46.03 59.19L45.85 56.94C43.69 61.5 40.63 68.46 36.67 77.82C36.13 79.02 35.02 79.62 33.34 79.62C32.14 79.62 30.88 79.32 29.56 78.72C28.24 78.12 27.16 77.37 26.32 76.47C25.54 75.57 25.21 74.64 25.33 73.68C26.11 68.52 26.5 62.49 26.5 55.59C26.5 52.41 26.38 47.7 26.14 41.46C25.9 35.22 25.78 30.57 25.78 27.51L25.87 23.37C25.93 22.53 26.26 21.9 26.86 21.48C27.52 21.06 28.36 20.85 29.38 20.85C31.18 20.85 32.98 21.36 34.78 22.38C36.58 23.34 37.45 24.45 37.39 25.71L37.3 30.48C37.3 34.02 37.42 39.33 37.66 46.41C40.24 41.13 43.06 35.94 46.12 30.84C46.78 29.76 48.01 29.22 49.81 29.22C51.55 29.22 53.23 29.7 54.85 30.66C56.53 31.62 57.4 32.76 57.46 34.08C57.52 34.98 57.55 36.36 57.55 38.22C57.55 39.84 57.49 42.27 57.37 45.51C57.25 49.53 57.22 52.53 57.28 54.51V57.48C61.48 45.24 64.48 32.82 66.28 20.22Z" fill="white"/>
</g>
<defs>
<clipPath id="clip0_1390_2">
<rect width="100" height="100" rx="15" fill="white"/>
</clipPath>
</defs>
</svg>
